<?xml version="1.0" encoding="UTF-8"?>
<!DOCTYPE svg PUBLIC "-//W3C//DTD SVG 1.1//EN" "http://www.w3.org/Graphics/SVG/1.1/DTD/svg11.dtd">
<svg xmlns="http://www.w3.org/2000/svg" version="1.1" width="1800px" height="800px" style="shape-rendering:geometricPrecision; text-rendering:geometricPrecision; image-rendering:optimizeQuality; fill-rule:evenodd; clip-rule:evenodd" xmlns:xlink="http://www.w3.org/1999/xlink">
<g><path style="opacity:1" fill="#020319" d="M -0.5,-0.5 C 599.5,-0.5 1199.5,-0.5 1799.5,-0.5C 1799.5,266.167 1799.5,532.833 1799.5,799.5C 1199.5,799.5 599.5,799.5 -0.5,799.5C -0.5,532.833 -0.5,266.167 -0.5,-0.5 Z"/></g>
<g><path style="opacity:1" fill="#0594ae" d="M 412.5,80.5 C 416.599,80.3666 420.266,81.5333 423.5,84C 431.031,91.197 438.198,98.697 445,106.5C 446.226,111.475 445.393,115.975 442.5,120C 437.167,123.333 431.833,123.333 426.5,120C 418.596,112.766 411.429,104.933 405,96.5C 402.965,88.9068 405.465,83.5735 412.5,80.5 Z"/></g>
<g><path style="opacity:1" fill="#0295af" d="M 543.5,259.5 C 506.167,222.5 468.833,185.5 431.5,148.5C 445.298,134.201 459.298,120.035 473.5,106C 483.867,100.684 490.2,103.684 492.5,115C 492.005,119.981 489.671,123.981 485.5,127C 494.333,135.833 503.167,144.667 512,153.5C 524.968,172.994 525.802,192.994 514.5,213.5C 525.801,227.801 535.468,243.135 543.5,259.5 Z"/></g>
<g><path style="opacity:1" fill="#0593ad" d="M 374.5,118.5 C 378.059,118.408 381.392,119.241 384.5,121C 391.667,128.167 398.833,135.333 406,142.5C 410.351,150.294 408.518,156.128 400.5,160C 397.5,160.667 394.5,160.667 391.5,160C 382.296,152.463 374.129,143.963 367,134.5C 364.965,126.907 367.465,121.573 374.5,118.5 Z"/></g>
<g><path style="opacity:1" fill="#4dadbe" d="M 431.5,148.5 C 468.833,185.5 506.167,222.5 543.5,259.5C 543.631,260.239 543.464,260.906 543,261.5C 505.249,224.25 468.082,186.583 431.5,148.5 Z"/></g>
<g><path style="opacity:1" fill="#2b5354" d="M 1707.5,263.5 C 1712.46,263.816 1716.8,265.483 1720.5,268.5C 1716.06,267.021 1711.72,265.354 1707.5,263.5 Z"/></g>
<g><path style="opacity:1" fill="#338c76" d="M 1673.5,262.5 C 1670.59,263.816 1667.59,264.816 1664.5,265.5C 1663.17,265.5 1661.83,265.5 1660.5,265.5C 1660.92,264.778 1661.58,264.278 1662.5,264C 1666.17,263.452 1669.84,262.952 1673.5,262.5 Z"/></g>
<g><path style="opacity:1" fill="#17e79f" d="M 1693.5,262.5 C 1697.39,264.275 1701.72,265.108 1706.5,265C 1708.17,266 1709.5,267.333 1710.5,269C 1706.75,269.387 1703.09,268.887 1699.5,267.5C 1689.32,268.768 1679.15,268.768 1669,267.5C 1667.86,268.783 1666.53,269.783 1665,270.5C 1663.63,269.419 1662.13,268.585 1660.5,268C 1662.32,267.8 1663.65,266.966 1664.5,265.5C 1667.59,264.816 1670.59,263.816 1673.5,262.5C 1680.3,261.226 1686.96,261.226 1693.5,262.5 Z"/></g>
<g><path style="opacity:1" fill="#38aa89" d="M 1660.5,265.5 C 1657.66,267.915 1654.33,269.248 1650.5,269.5C 1653.34,267.085 1656.67,265.752 1660.5,265.5 Z"/></g>
<g><path style="opacity:1" fill="#35947d" d="M 1650.5,269.5 C 1647.28,272.247 1643.61,274.247 1639.5,275.5C 1642.32,272.249 1645.99,270.249 1650.5,269.5 Z"/></g>
<g><path style="opacity:1" fill="#1ddf9e" d="M 1693.5,262.5 C 1698.19,262.54 1702.86,262.873 1707.5,263.5C 1711.72,265.354 1716.06,267.021 1720.5,268.5C 1725.5,270.664 1730.17,273.331 1734.5,276.5C 1734.82,278.048 1735.82,278.715 1737.5,278.5C 1737.5,279.833 1737.5,281.167 1737.5,282.5C 1734.83,282.167 1732.17,281.833 1729.5,281.5C 1728.4,280.4 1727.06,279.733 1725.5,279.5C 1725.43,277.589 1724.43,276.422 1722.5,276C 1718.81,275.148 1715.14,274.315 1711.5,273.5C 1708.69,272.525 1705.69,271.858 1702.5,271.5C 1697.42,269.985 1692.09,269.318 1686.5,269.5C 1682.83,269.667 1679.17,269.833 1675.5,270C 1672.2,270.204 1669.2,271.037 1666.5,272.5C 1665.83,272.5 1665.17,272.5 1664.5,272.5C 1663.13,272.343 1661.79,272.51 1660.5,273C 1658.11,273.739 1656.11,274.905 1654.5,276.5C 1653.83,276.5 1653.17,276.5 1652.5,276.5C 1649.83,276.833 1647.17,277.167 1644.5,277.5C 1644.5,278.5 1644.5,279.5 1644.5,280.5C 1642.5,280.5 1640.5,280.5 1638.5,280.5C 1638.5,281.5 1638.5,282.5 1638.5,283.5C 1636.65,283.778 1635.32,283.111 1634.5,281.5C 1636.91,280.095 1638.57,278.095 1639.5,275.5C 1643.61,274.247 1647.28,272.247 1650.5,269.5C 1654.33,269.248 1657.66,267.915 1660.5,265.5C 1661.83,265.5 1663.17,265.5 1664.5,265.5C 1663.65,266.966 1662.32,267.8 1660.5,268C 1662.13,268.585 1663.63,269.419 1665,270.5C 1666.53,269.783 1667.86,268.783 1669,267.5C 1679.15,268.768 1689.32,268.768 1699.5,267.5C 1703.09,268.887 1706.75,269.387 1710.5,269C 1709.5,267.333 1708.17,266 1706.5,265C 1701.72,265.108 1697.39,264.275 1693.5,262.5 Z"/></g>
<g><path style="opacity:1" fill="#36ae8a" d="M 1711.5,273.5 C 1715.14,274.315 1718.81,275.148 1722.5,276C 1724.43,276.422 1725.43,277.589 1725.5,279.5C 1720.79,277.496 1716.12,275.496 1711.5,273.5 Z"/></g>
<g><path style="opacity:1" fill="#224548" d="M 1664.5,272.5 C 1664.05,273.458 1663.38,274.292 1662.5,275C 1659.75,275.272 1657.08,275.772 1654.5,276.5C 1656.11,274.905 1658.11,273.739 1660.5,273C 1661.79,272.51 1663.13,272.343 1664.5,272.5 Z"/></g>
<g><path style="opacity:1" fill="#142432" d="M 1702.5,271.5 C 1690.47,271.251 1678.47,271.584 1666.5,272.5C 1669.2,271.037 1672.2,270.204 1675.5,270C 1679.17,269.833 1682.83,269.667 1686.5,269.5C 1692.09,269.318 1697.42,269.985 1702.5,271.5 Z"/></g>
<g><path style="opacity:1" fill="#233f46" d="M 1650.5,278.5 C 1647.55,281.783 1643.88,283.783 1639.5,284.5C 1642.77,281.879 1646.44,279.879 1650.5,278.5 Z"/></g>
<g><path style="opacity:1" fill="#20d1a1" d="M 1724.5,293.5 C 1724.54,294.583 1724.87,295.583 1725.5,296.5C 1722.57,297.484 1719.57,297.817 1716.5,297.5C 1710.85,295.397 1705.18,293.23 1699.5,291C 1697.53,290.505 1695.53,290.338 1693.5,290.5C 1683.88,288.685 1674.54,289.685 1665.5,293.5C 1661.96,295.35 1658.3,297.017 1654.5,298.5C 1651.03,298.602 1647.86,299.602 1645,301.5C 1644.5,301.167 1644,300.833 1643.5,300.5C 1645.98,297.179 1648.64,294.179 1651.5,291.5C 1659.59,288.442 1667.59,285.442 1675.5,282.5C 1688.96,280.707 1702.13,282.373 1715,287.5C 1718.46,289.139 1721.62,291.139 1724.5,293.5 Z"/></g>
<g><path style="opacity:1" fill="#1fd2a2" d="M 1734.5,276.5 C 1741.5,279.933 1747.5,284.6 1752.5,290.5C 1752.2,292.604 1752.53,294.604 1753.5,296.5C 1756.69,298.243 1757.86,300.91 1757,304.5C 1754.67,300.952 1751.51,298.618 1747.5,297.5C 1745.5,293.5 1742.5,290.5 1738.5,288.5C 1735.24,286.577 1732.24,284.244 1729.5,281.5C 1732.17,281.833 1734.83,282.167 1737.5,282.5C 1737.5,281.167 1737.5,279.833 1737.5,278.5C 1735.82,278.715 1734.82,278.048 1734.5,276.5 Z"/></g>
<g><path style="opacity:1" fill="#36a28a" d="M 1633.5,279.5 C 1630.08,283.926 1626.08,287.593 1621.5,290.5C 1624.82,286.181 1628.82,282.515 1633.5,279.5 Z"/></g>
<g><path style="opacity:1" fill="#1dd6a3" d="M 1639.5,275.5 C 1638.57,278.095 1636.91,280.095 1634.5,281.5C 1635.32,283.111 1636.65,283.778 1638.5,283.5C 1638.5,282.5 1638.5,281.5 1638.5,280.5C 1640.5,280.5 1642.5,280.5 1644.5,280.5C 1644.5,279.5 1644.5,278.5 1644.5,277.5C 1647.17,277.167 1649.83,276.833 1652.5,276.5C 1651.83,277.167 1651.17,277.833 1650.5,278.5C 1646.44,279.879 1642.77,281.879 1639.5,284.5C 1637.82,285.527 1636.15,286.527 1634.5,287.5C 1632.67,288.052 1631,288.052 1629.5,287.5C 1628.29,288.274 1628.29,289.107 1629.5,290C 1628.55,290.483 1627.55,290.649 1626.5,290.5C 1626.76,291.978 1626.43,293.311 1625.5,294.5C 1623.88,295.933 1622.54,297.599 1621.5,299.5C 1619.77,298.974 1618.44,297.974 1617.5,296.5C 1618.84,294.471 1620.18,292.471 1621.5,290.5C 1626.08,287.593 1630.08,283.926 1633.5,279.5C 1634.8,277.178 1636.8,275.845 1639.5,275.5 Z"/></g>
<g><path style="opacity:1" fill="#3a7973" d="M 1738.5,288.5 C 1742.5,290.5 1745.5,293.5 1747.5,297.5C 1744.17,294.833 1741.17,291.833 1738.5,288.5 Z"/></g>
<g><path style="opacity:1" fill="#3c9a86" d="M 1675.5,282.5 C 1667.59,285.442 1659.59,288.442 1651.5,291.5C 1651.95,290.542 1652.62,289.708 1653.5,289C 1657.93,287.617 1662.27,285.95 1666.5,284C 1669.39,282.851 1672.39,282.351 1675.5,282.5 Z"/></g>
<g><path style="opacity:1" fill="#27c19f" d="M 1634.5,287.5 C 1630.46,291.534 1626.8,295.868 1623.5,300.5C 1620.46,302.879 1618.13,305.879 1616.5,309.5C 1615.15,313.2 1613.65,316.867 1612,320.5C 1611.33,314.167 1611.33,307.833 1612,301.5C 1614.72,298.443 1617.06,295.11 1619,291.5C 1619.67,290.748 1620.5,290.414 1621.5,290.5C 1620.18,292.471 1618.84,294.471 1617.5,296.5C 1618.44,297.974 1619.77,298.974 1621.5,299.5C 1622.54,297.599 1623.88,295.933 1625.5,294.5C 1626.43,293.311 1626.76,291.978 1626.5,290.5C 1627.55,290.649 1628.55,290.483 1629.5,290C 1628.29,289.107 1628.29,288.274 1629.5,287.5C 1631,288.052 1632.67,288.052 1634.5,287.5 Z"/></g>
<g><path style="opacity:1" fill="#254c50" d="M 1693.5,290.5 C 1684,290.382 1674.67,291.382 1665.5,293.5C 1674.54,289.685 1683.88,288.685 1693.5,290.5 Z"/></g>
<g><path style="opacity:1" fill="#03051a" d="M 1693.5,290.5 C 1695.53,290.338 1697.53,290.505 1699.5,291C 1705.18,293.23 1710.85,295.397 1716.5,297.5C 1725.1,303.096 1732.43,310.096 1738.5,318.5C 1740.32,322.156 1741.99,325.823 1743.5,329.5C 1743.5,330.167 1743.5,330.833 1743.5,331.5C 1745.81,342.048 1746.14,352.714 1744.5,363.5C 1744.04,368.476 1742.71,373.142 1740.5,377.5C 1736.9,382.789 1733.23,388.123 1729.5,393.5C 1729.17,393.5 1728.83,393.5 1728.5,393.5C 1723.32,398.25 1717.66,402.25 1711.5,405.5C 1708.29,406.079 1705.29,407.079 1702.5,408.5C 1701.83,384.5 1701.17,360.5 1700.5,336.5C 1692.16,336.334 1683.83,336.5 1675.5,337C 1673.62,337.198 1671.95,337.698 1670.5,338.5C 1669.17,338.5 1667.83,338.5 1666.5,338.5C 1660.43,340.018 1654.43,341.852 1648.5,344C 1640.42,348.363 1632.75,353.196 1625.5,358.5C 1625.27,350.742 1625.93,343.076 1627.5,335.5C 1629.01,333.819 1630.01,331.819 1630.5,329.5C 1630.7,327.315 1631.37,325.315 1632.5,323.5C 1633.38,323.631 1634.04,323.298 1634.5,322.5C 1635.8,318.896 1637.47,315.563 1639.5,312.5C 1640.71,309.128 1643.04,306.962 1646.5,306C 1648.43,302.563 1651.1,300.063 1654.5,298.5C 1658.3,297.017 1661.96,295.35 1665.5,293.5C 1674.67,291.382 1684,290.382 1693.5,290.5 Z"/></g>
<g><path style="opacity:1" fill="#27c3a4" d="M 1724.5,293.5 C 1731.45,297.445 1737.11,302.778 1741.5,309.5C 1741.41,311.696 1741.08,313.863 1740.5,316C 1740.32,317.376 1739.65,318.209 1738.5,318.5C 1732.43,310.096 1725.1,303.096 1716.5,297.5C 1719.57,297.817 1722.57,297.484 1725.5,296.5C 1724.87,295.583 1724.54,294.583 1724.5,293.5 Z"/></g>
<g><path style="opacity:1" fill="#28c1a3" d="M 1651.5,291.5 C 1648.64,294.179 1645.98,297.179 1643.5,300.5C 1644,300.833 1644.5,301.167 1645,301.5C 1647.86,299.602 1651.03,298.602 1654.5,298.5C 1651.1,300.063 1648.43,302.563 1646.5,306C 1643.04,306.962 1640.71,309.128 1639.5,312.5C 1638.17,313.5 1636.83,314.5 1635.5,315.5C 1634.25,315.577 1633.42,316.244 1633,317.5C 1631.29,316.692 1630.46,315.359 1630.5,313.5C 1631.5,313.5 1632.5,313.5 1633.5,313.5C 1633.34,311.801 1633.51,310.134 1634,308.5C 1636.08,305.935 1637.91,303.268 1639.5,300.5C 1642.91,296.762 1646.91,293.762 1651.5,291.5 Z"/></g>
<g><path style="opacity:1" fill="#d6d6d6" d="M 1312.5,301.5 C 1329.09,300.32 1345.09,302.82 1360.5,309C 1361.65,317.421 1361.82,325.921 1361,334.5C 1334.87,321.248 1309.7,322.748 1285.5,339C 1271.44,351.46 1264.44,367.127 1264.5,386C 1265.45,421.613 1283.45,442.28 1318.5,448C 1333.11,448.879 1346.94,446.046 1360,439.5C 1360.5,448.16 1360.67,456.827 1360.5,465.5C 1334.12,474.976 1307.79,474.809 1281.5,465C 1252.38,450.632 1236.88,427.132 1235,394.5C 1232.23,360.897 1244.39,334.397 1271.5,315C 1284.47,307.955 1298.13,303.455 1312.5,301.5 Z"/></g>
<g><path style="opacity:1" fill="#0095b0" d="M 1525.5,301.5 C 1544.35,300.693 1562.35,304.193 1579.5,312C 1580.82,320.774 1580.82,329.607 1579.5,338.5C 1558.35,326.074 1536.02,323.241 1512.5,330C 1493.22,338.37 1481.39,352.87 1477,373.5C 1473.88,395.034 1478.88,414.367 1492,431.5C 1511.99,449.002 1534.49,453.002 1559.5,443.5C 1560.5,430.851 1560.83,418.184 1560.5,405.5C 1552.5,405.5 1544.5,405.5 1536.5,405.5C 1536.5,398.167 1536.5,390.833 1536.5,383.5C 1553.5,383.5 1570.5,383.5 1587.5,383.5C 1587.67,409.169 1587.5,434.835 1587,460.5C 1557.63,474.412 1527.46,476.245 1496.5,466C 1469.75,454.347 1453.59,434.181 1448,405.5C 1441.3,369.907 1451.8,340.741 1479.5,318C 1493.6,308.801 1508.94,303.301 1525.5,301.5 Z"/></g>
<g><path style="opacity:1" fill="#2d545a" d="M 1623.5,300.5 C 1621.91,303.99 1619.57,306.99 1616.5,309.5C 1618.13,305.879 1620.46,302.879 1623.5,300.5 Z"/></g>
<g><path style="opacity:1" fill="#9b9ca2" d="M 973.5,329.5 C 988.658,328.504 1003.99,328.17 1019.5,328.5C 1019.5,321.167 1019.5,313.833 1019.5,306.5C 979.167,306.5 938.833,306.5 898.5,306.5C 898.5,313.833 898.5,321.167 898.5,328.5C 913.676,328.171 928.676,328.504 943.5,329.5C 928.167,329.5 912.833,329.5 897.5,329.5C 897.5,321.5 897.5,313.5 897.5,305.5C 938.5,305.5 979.5,305.5 1020.5,305.5C 1020.5,313.5 1020.5,321.5 1020.5,329.5C 1004.83,329.5 989.167,329.5 973.5,329.5 Z"/></g>
<g><path style="opacity:1" fill="#d6d6d6" d="M 600.5,305.5 C 627.167,305.5 653.833,305.5 680.5,305.5C 680.5,313.5 680.5,321.5 680.5,329.5C 663.5,329.5 646.5,329.5 629.5,329.5C 629.5,343.833 629.5,358.167 629.5,372.5C 644.167,372.5 658.833,372.5 673.5,372.5C 673.5,379.833 673.5,387.167 673.5,394.5C 658.833,394.5 644.167,394.5 629.5,394.5C 629.5,411.5 629.5,428.5 629.5,445.5C 646.5,445.5 663.5,445.5 680.5,445.5C 680.5,453.5 680.5,461.5 680.5,469.5C 653.833,469.5 627.167,469.5 600.5,469.5C 600.5,414.833 600.5,360.167 600.5,305.5 Z"/></g>
<g><path style="opacity:1" fill="#d7d7d7" d="M 704.5,306.5 C 714.167,306.5 723.833,306.5 733.5,306.5C 733.168,353.003 733.501,399.336 734.5,445.5C 751.5,445.5 768.5,445.5 785.5,445.5C 785.5,453.5 785.5,461.5 785.5,469.5C 758.5,469.5 731.5,469.5 704.5,469.5C 704.5,415.167 704.5,360.833 704.5,306.5 Z"/></g>
<g><path style="opacity:1" fill="#8e8f96" d="M 704.5,306.5 C 714.319,305.506 724.319,305.173 734.5,305.5C 734.5,352.167 734.5,398.833 734.5,445.5C 733.501,399.336 733.168,353.003 733.5,306.5C 723.833,306.5 714.167,306.5 704.5,306.5 Z"/></g>
<g><path style="opacity:1" fill="#9f9fa5" d="M 835.5,329.5 C 852.325,328.503 869.325,328.17 886.5,328.5C 886.5,321.167 886.5,313.833 886.5,306.5C 860.167,306.5 833.833,306.5 807.5,306.5C 807.5,360.5 807.5,414.5 807.5,468.5C 807.167,468.5 806.833,468.5 806.5,468.5C 806.5,414.167 806.5,359.833 806.5,305.5C 833.5,305.5 860.5,305.5 887.5,305.5C 887.5,313.5 887.5,321.5 887.5,329.5C 870.167,329.5 852.833,329.5 835.5,329.5 Z"/></g>
<g><path style="opacity:1" fill="#d8d8d8" d="M 835.5,329.5 C 835.5,343.833 835.5,358.167 835.5,372.5C 850.167,372.5 864.833,372.5 879.5,372.5C 879.5,379.833 879.5,387.167 879.5,394.5C 864.833,394.5 850.167,394.5 835.5,394.5C 835.5,411.5 835.5,428.5 835.5,445.5C 852.5,445.5 869.5,445.5 886.5,445.5C 886.5,453.167 886.5,460.833 886.5,468.5C 860.167,468.5 833.833,468.5 807.5,468.5C 807.5,414.5 807.5,360.5 807.5,306.5C 833.833,306.5 860.167,306.5 886.5,306.5C 886.5,313.833 886.5,321.167 886.5,328.5C 869.325,328.17 852.325,328.503 835.5,329.5 Z"/></g>
<g><path style="opacity:1" fill="#d8d8d8" d="M 973.5,329.5 C 973.5,375.833 973.5,422.167 973.5,468.5C 963.833,468.5 954.167,468.5 944.5,468.5C 944.832,421.997 944.499,375.664 943.5,329.5C 928.676,328.504 913.676,328.171 898.5,328.5C 898.5,321.167 898.5,313.833 898.5,306.5C 938.833,306.5 979.167,306.5 1019.5,306.5C 1019.5,313.833 1019.5,321.167 1019.5,328.5C 1003.99,328.17 988.658,328.504 973.5,329.5 Z"/></g>
<g><path style="opacity:1" fill="#d7d7d7" d="M 1160.5,467.5 C 1150.68,468.494 1140.68,468.827 1130.5,468.5C 1124.77,452.823 1118.94,437.157 1113,421.5C 1106.56,405.879 1095.06,396.879 1078.5,394.5C 1078.5,386.833 1078.5,379.167 1078.5,371.5C 1091.83,372.902 1102.33,368.235 1110,357.5C 1114.65,342.963 1109.81,333.129 1095.5,328C 1086.84,327.5 1078.17,327.334 1069.5,327.5C 1069.5,374.833 1069.5,422.167 1069.5,469.5C 1059.83,469.5 1050.17,469.5 1040.5,469.5C 1040.5,414.833 1040.5,360.167 1040.5,305.5C 1059.5,305.333 1078.5,305.5 1097.5,306C 1116.38,306.921 1129.88,315.754 1138,332.5C 1143.97,360.046 1133.14,376.88 1105.5,383C 1119.58,387.078 1130.08,395.578 1137,408.5C 1145.72,427.833 1153.55,447.499 1160.5,467.5 Z"/></g>
<g><path style="opacity:1" fill="#99999f" d="M 1212.5,306.5 C 1202.83,306.5 1193.17,306.5 1183.5,306.5C 1183.5,360.5 1183.5,414.5 1183.5,468.5C 1193.17,468.5 1202.83,468.5 1212.5,468.5C 1202.68,469.494 1192.68,469.827 1182.5,469.5C 1182.5,414.833 1182.5,360.167 1182.5,305.5C 1192.68,305.173 1202.68,305.506 1212.5,306.5 Z"/></g>
<g><path style="opacity:1" fill="#d8d9d8" d="M 1212.5,306.5 C 1212.5,360.5 1212.5,414.5 1212.5,468.5C 1202.83,468.5 1193.17,468.5 1183.5,468.5C 1183.5,414.5 1183.5,360.5 1183.5,306.5C 1193.17,306.5 1202.83,306.5 1212.5,306.5 Z"/></g>
<g><path style="opacity:1" fill="#29bfa0" d="M 1752.5,290.5 C 1755.09,293.988 1757.92,297.321 1761,300.5C 1761.67,307.167 1761.67,313.833 1761,320.5C 1758.55,311.598 1754.05,303.931 1747.5,297.5C 1751.51,298.618 1754.67,300.952 1757,304.5C 1757.86,300.91 1756.69,298.243 1753.5,296.5C 1752.53,294.604 1752.2,292.604 1752.5,290.5 Z"/></g>
<g><path style="opacity:1" fill="#27b4a7" d="M 1639.5,300.5 C 1637.91,303.268 1636.08,305.935 1634,308.5C 1633.51,310.134 1633.34,311.801 1633.5,313.5C 1632.5,313.5 1631.5,313.5 1630.5,313.5C 1630.46,315.359 1631.29,316.692 1633,317.5C 1633.42,316.244 1634.25,315.577 1635.5,315.5C 1634.5,318.167 1633.5,320.833 1632.5,323.5C 1631.37,325.315 1630.7,327.315 1630.5,329.5C 1628.39,330.784 1627.39,332.784 1627.5,335.5C 1627.17,335.5 1626.83,335.5 1626.5,335.5C 1624.96,336.301 1623.29,336.634 1621.5,336.5C 1622.64,331.095 1623.97,325.761 1625.5,320.5C 1628.14,312.507 1632.81,305.841 1639.5,300.5 Z"/></g>
<g><path style="opacity:1" fill="#243a48" d="M 1639.5,312.5 C 1637.47,315.563 1635.8,318.896 1634.5,322.5C 1634.04,323.298 1633.38,323.631 1632.5,323.5C 1633.5,320.833 1634.5,318.167 1635.5,315.5C 1636.83,314.5 1638.17,313.5 1639.5,312.5 Z"/></g>
<g><path style="opacity:1" fill="#26b8a8" d="M 1741.5,309.5 C 1745.82,312.818 1748.49,317.151 1749.5,322.5C 1750.16,325.825 1750.83,329.158 1751.5,332.5C 1751.17,333.833 1750.83,335.167 1750.5,336.5C 1749.35,332.937 1747.02,330.604 1743.5,329.5C 1741.99,325.823 1740.32,322.156 1738.5,318.5C 1739.65,318.209 1740.32,317.376 1740.5,316C 1741.08,313.863 1741.41,311.696 1741.5,309.5 Z"/></g>
<g><path style="opacity:1" fill="#8a8b93" d="M 943.5,329.5 C 944.499,375.664 944.832,421.997 944.5,468.5C 954.167,468.5 963.833,468.5 973.5,468.5C 963.681,469.494 953.681,469.827 943.5,469.5C 943.5,422.833 943.5,376.167 943.5,329.5 Z"/></g>
<g><path style="opacity:1" fill="#2d505a" d="M 1630.5,329.5 C 1630.01,331.819 1629.01,333.819 1627.5,335.5C 1627.39,332.784 1628.39,330.784 1630.5,329.5 Z"/></g>
<g><path style="opacity:1" fill="#29a9ac" d="M 1625.5,320.5 C 1623.97,325.761 1622.64,331.095 1621.5,336.5C 1623.29,336.634 1624.96,336.301 1626.5,335.5C 1625.17,342.428 1624.17,349.428 1623.5,356.5C 1622.29,354.516 1622.29,352.516 1623.5,350.5C 1620.18,349.841 1618.84,347.841 1619.5,344.5C 1619.5,341.5 1619.5,338.5 1619.5,335.5C 1620.16,329.864 1622.16,324.864 1625.5,320.5 Z"/></g>
<g><path style="opacity:1" fill="#21b3b3" d="M 1693.5,344.5 C 1687.5,343.167 1681.5,343.167 1675.5,344.5C 1669.61,343.218 1664.61,343.218 1660.5,344.5C 1659.61,345.325 1659.28,346.325 1659.5,347.5C 1657.83,347.5 1656.17,347.5 1654.5,347.5C 1654.5,346.167 1654.5,344.833 1654.5,343.5C 1659.04,342.888 1663.04,341.222 1666.5,338.5C 1667.83,338.5 1669.17,338.5 1670.5,338.5C 1678.83,338.116 1687.16,337.782 1695.5,337.5C 1696.01,340.388 1695.34,342.721 1693.5,344.5 Z"/></g>
<g><path style="opacity:1" fill="#29a7b3" d="M 1700.5,336.5 C 1700.5,339.5 1700.5,342.5 1700.5,345.5C 1699.83,351.346 1699.17,357.346 1698.5,363.5C 1697.03,364.381 1696.2,365.714 1696,367.5C 1695.88,365.563 1695.05,364.23 1693.5,363.5C 1693.5,357.167 1693.5,350.833 1693.5,344.5C 1695.34,342.721 1696.01,340.388 1695.5,337.5C 1687.16,337.782 1678.83,338.116 1670.5,338.5C 1671.95,337.698 1673.62,337.198 1675.5,337C 1683.83,336.5 1692.16,336.334 1700.5,336.5 Z"/></g>
<g><path style="opacity:1" fill="#2d5462" d="M 1619.5,335.5 C 1619.5,338.5 1619.5,341.5 1619.5,344.5C 1618.51,350.31 1618.18,356.31 1618.5,362.5C 1617.89,368.271 1618.55,373.604 1620.5,378.5C 1620.19,379.478 1619.52,380.145 1618.5,380.5C 1617.33,366.846 1617.17,353.179 1618,339.5C 1618.21,337.942 1618.71,336.609 1619.5,335.5 Z"/></g>
<g><path style="opacity:1" fill="#1b2a3c" d="M 1743.5,331.5 C 1745.71,333.995 1746.88,336.995 1747,340.5C 1747.5,345.155 1747.67,349.821 1747.5,354.5C 1747.32,357.984 1746.32,360.984 1744.5,363.5C 1746.14,352.714 1745.81,342.048 1743.5,331.5 Z"/></g>
<g><path style="opacity:1" fill="#396572" d="M 1752.5,330.5 C 1753.12,330.611 1753.62,330.944 1754,331.5C 1755.55,340.304 1755.72,348.971 1754.5,357.5C 1754.42,348.452 1753.75,339.452 1752.5,330.5 Z"/></g>
<g><path style="opacity:1" fill="#33475a" d="M 1700.5,336.5 C 1701.17,360.5 1701.83,384.5 1702.5,408.5C 1702.16,409.338 1701.49,409.672 1700.5,409.5C 1700.5,388.167 1700.5,366.833 1700.5,345.5C 1700.5,342.5 1700.5,339.5 1700.5,336.5 Z"/></g>
<g><path style="opacity:1" fill="#26aab6" d="M 1749.5,322.5 C 1751.58,324.684 1752.58,327.351 1752.5,330.5C 1753.75,339.452 1754.42,348.452 1754.5,357.5C 1753.66,359.379 1753.33,361.379 1753.5,363.5C 1752.78,363.918 1752.28,364.584 1752,365.5C 1751.63,364.09 1750.8,363.09 1749.5,362.5C 1748.83,359.694 1748.17,357.028 1747.5,354.5C 1747.67,349.821 1747.5,345.155 1747,340.5C 1746.88,336.995 1745.71,333.995 1743.5,331.5C 1743.5,330.833 1743.5,330.167 1743.5,329.5C 1747.02,330.604 1749.35,332.937 1750.5,336.5C 1750.83,335.167 1751.17,333.833 1751.5,332.5C 1750.83,329.158 1750.16,325.825 1749.5,322.5 Z"/></g>
<g><path style="opacity:1" fill="#2b9cae" d="M 1626.5,335.5 C 1626.83,335.5 1627.17,335.5 1627.5,335.5C 1625.93,343.076 1625.27,350.742 1625.5,358.5C 1632.75,353.196 1640.42,348.363 1648.5,344C 1654.43,341.852 1660.43,340.018 1666.5,338.5C 1663.04,341.222 1659.04,342.888 1654.5,343.5C 1654.5,344.833 1654.5,346.167 1654.5,347.5C 1656.17,347.5 1657.83,347.5 1659.5,347.5C 1659.28,346.325 1659.61,345.325 1660.5,344.5C 1664.61,343.218 1669.61,343.218 1675.5,344.5C 1675.5,344.833 1675.5,345.167 1675.5,345.5C 1672.48,345.335 1669.48,345.502 1666.5,346C 1654,350.001 1642.67,356.168 1632.5,364.5C 1630.83,364.5 1629.17,364.5 1627.5,364.5C 1627.5,365.833 1627.5,367.167 1627.5,368.5C 1626.5,368.5 1625.5,368.5 1624.5,368.5C 1625.17,372.5 1623.5,374.167 1619.5,373.5C 1619.81,369.629 1619.48,365.962 1618.5,362.5C 1618.18,356.31 1618.51,350.31 1619.5,344.5C 1618.84,347.841 1620.18,349.841 1623.5,350.5C 1622.29,352.516 1622.29,354.516 1623.5,356.5C 1624.17,349.428 1625.17,342.428 1626.5,335.5 Z"/></g>
<g><path style="opacity:1" fill="#299ebb" d="M 1675.5,357.5 C 1677.1,357.232 1678.43,357.566 1679.5,358.5C 1679.5,366.5 1679.5,374.5 1679.5,382.5C 1676.81,382.067 1674.81,380.733 1673.5,378.5C 1673.81,374.629 1673.48,370.962 1672.5,367.5C 1671.9,366.861 1671.07,366.528 1670,366.5C 1668.3,366.387 1667.13,367.053 1666.5,368.5C 1664.8,368.34 1663.13,368.506 1661.5,369C 1660.53,370.481 1659.2,371.315 1657.5,371.5C 1657.5,370.167 1657.5,368.833 1657.5,367.5C 1656.45,367.649 1655.45,367.483 1654.5,367C 1657.65,365.921 1660.31,364.088 1662.5,361.5C 1664.46,360.366 1666.46,360.366 1668.5,361.5C 1670.77,359.873 1673.1,358.539 1675.5,357.5 Z"/></g>
<g><path style="opacity:1" fill="#3b869e" d="M 1618.5,362.5 C 1619.48,365.962 1619.81,369.629 1619.5,373.5C 1623.5,374.167 1625.17,372.5 1624.5,368.5C 1625.5,368.5 1626.5,368.5 1627.5,368.5C 1627.5,367.167 1627.5,365.833 1627.5,364.5C 1629.17,364.5 1630.83,364.5 1632.5,364.5C 1628.04,368.723 1624.04,373.389 1620.5,378.5C 1618.55,373.604 1617.89,368.271 1618.5,362.5 Z"/></g>
<g><path style="opacity:1" fill="#04051a" d="M 1672.5,438.5 C 1679.5,439.833 1686.5,439.833 1693.5,438.5C 1701.43,438.567 1709.1,437.234 1716.5,434.5C 1720.66,434.309 1724,432.643 1726.5,429.5C 1728.31,429.509 1729.98,429.009 1731.5,428C 1734.01,425.585 1736.68,423.419 1739.5,421.5C 1742.08,420.272 1744.41,418.605 1746.5,416.5C 1747.41,424.15 1747.41,431.817 1746.5,439.5C 1745.83,441.167 1745.17,442.833 1744.5,444.5C 1742.04,446.818 1740.71,449.818 1740.5,453.5C 1738.67,455.147 1737.34,457.147 1736.5,459.5C 1733.85,462.159 1731.52,465.159 1729.5,468.5C 1726.21,470.458 1723.21,472.791 1720.5,475.5C 1716.51,478.956 1711.84,481.29 1706.5,482.5C 1693.15,486.403 1679.82,486.403 1666.5,482.5C 1662.62,481.618 1658.95,480.285 1655.5,478.5C 1653.72,476.124 1651.39,474.458 1648.5,473.5C 1648.5,473.167 1648.5,472.833 1648.5,472.5C 1646.5,469.833 1644.17,467.5 1641.5,465.5C 1640.83,465.167 1640.17,464.833 1639.5,464.5C 1637.94,461.42 1635.94,458.753 1633.5,456.5C 1633.5,455.833 1633.5,455.167 1633.5,454.5C 1631.63,450.233 1629.97,445.9 1628.5,441.5C 1627.48,431.518 1627.48,421.518 1628.5,411.5C 1629.17,408.167 1629.83,404.833 1630.5,401.5C 1630.33,400.508 1630.66,399.842 1631.5,399.5C 1637.79,387.877 1646.46,378.544 1657.5,371.5C 1659.2,371.315 1660.53,370.481 1661.5,369C 1663.13,368.506 1664.8,368.34 1666.5,368.5C 1668.12,367.962 1669.78,367.629 1671.5,367.5C 1671.17,391.339 1671.5,415.006 1672.5,438.5 Z"/></g>
<g><path style="opacity:1" fill="#3388a8" d="M 1675.5,357.5 C 1673.1,358.539 1670.77,359.873 1668.5,361.5C 1666.46,360.366 1664.46,360.366 1662.5,361.5C 1660.31,364.088 1657.65,365.921 1654.5,367C 1655.45,367.483 1656.45,367.649 1657.5,367.5C 1657.5,368.833 1657.5,370.167 1657.5,371.5C 1646.46,378.544 1637.79,387.877 1631.5,399.5C 1632.43,393.733 1634.93,388.733 1639,384.5C 1639.78,383.056 1639.61,381.723 1638.5,380.5C 1636.15,384.009 1632.98,386.676 1629,388.5C 1627.91,392.346 1626.08,395.68 1623.5,398.5C 1624.43,394.638 1625.93,390.971 1628,387.5C 1636.4,376.094 1646.9,367.261 1659.5,361C 1664.72,359.257 1670.05,358.09 1675.5,357.5 Z"/></g>
<g><path style="opacity:1" fill="#318fb1" d="M 1747.5,354.5 C 1748.17,357.028 1748.83,359.694 1749.5,362.5C 1750.8,363.09 1751.63,364.09 1752,365.5C 1752.28,364.584 1752.78,363.918 1753.5,363.5C 1751.67,374.35 1747.33,384.016 1740.5,392.5C 1741.8,388.545 1743.14,384.545 1744.5,380.5C 1742.03,380.912 1740.69,379.912 1740.5,377.5C 1742.71,373.142 1744.04,368.476 1744.5,363.5C 1746.32,360.984 1747.32,357.984 1747.5,354.5 Z"/></g>
<g><path style="opacity:1" fill="#3192b4" d="M 1700.5,345.5 C 1700.5,366.833 1700.5,388.167 1700.5,409.5C 1699.53,407.052 1699.19,404.385 1699.5,401.5C 1699.67,394.825 1699.5,388.158 1699,381.5C 1697.18,381.351 1695.35,381.351 1693.5,381.5C 1693.5,375.5 1693.5,369.5 1693.5,363.5C 1695.05,364.23 1695.88,365.563 1696,367.5C 1696.2,365.714 1697.03,364.381 1698.5,363.5C 1699.17,357.346 1699.83,351.346 1700.5,345.5 Z"/></g>
<g><path style="opacity:1" fill="#2f8cc4" d="M 1673.5,378.5 C 1674.81,380.733 1676.81,382.067 1679.5,382.5C 1679.5,388.167 1679.5,393.833 1679.5,399.5C 1677.96,398.699 1676.29,398.366 1674.5,398.5C 1674.79,400.735 1674.46,402.735 1673.5,404.5C 1673.5,395.833 1673.5,387.167 1673.5,378.5 Z"/></g>
<g><path style="opacity:1" fill="#436e86" d="M 1675.5,344.5 C 1681.5,343.167 1687.5,343.167 1693.5,344.5C 1693.5,350.833 1693.5,357.167 1693.5,363.5C 1693.5,369.5 1693.5,375.5 1693.5,381.5C 1693.5,388.5 1693.5,395.5 1693.5,402.5C 1693.5,407.5 1693.5,412.5 1693.5,417.5C 1692.5,393.339 1692.17,369.006 1692.5,344.5C 1686.83,344.5 1681.17,344.5 1675.5,344.5 Z"/></g>
<g><path style="opacity:1" fill="#2a3750" d="M 1672.5,367.5 C 1672.5,391.167 1672.5,414.833 1672.5,438.5C 1671.5,415.006 1671.17,391.339 1671.5,367.5C 1669.78,367.629 1668.12,367.962 1666.5,368.5C 1667.13,367.053 1668.3,366.387 1670,366.5C 1671.07,366.528 1671.9,366.861 1672.5,367.5 Z"/></g>
<g><path style="opacity:1" fill="#3384b3" d="M 1740.5,377.5 C 1740.69,379.912 1742.03,380.912 1744.5,380.5C 1743.14,384.545 1741.8,388.545 1740.5,392.5C 1739.5,395.5 1737.5,397.5 1734.5,398.5C 1734.86,396.11 1735.52,393.777 1736.5,391.5C 1736.17,390.5 1735.83,389.5 1735.5,388.5C 1734.07,390.938 1732.07,392.604 1729.5,393.5C 1733.23,388.123 1736.9,382.789 1740.5,377.5 Z"/></g>
<g><path style="opacity:1" fill="#2c8ec7" d="M 1699.5,401.5 C 1697.07,399.881 1695.07,400.214 1693.5,402.5C 1693.5,395.5 1693.5,388.5 1693.5,381.5C 1695.35,381.351 1697.18,381.351 1699,381.5C 1699.5,388.158 1699.67,394.825 1699.5,401.5 Z"/></g>
<g><path style="opacity:1" fill="#363647" d="M 879.5,394.5 C 865.343,395.496 851.01,395.829 836.5,395.5C 836.5,411.833 836.5,428.167 836.5,444.5C 853.342,444.17 870.008,444.503 886.5,445.5C 869.5,445.5 852.5,445.5 835.5,445.5C 835.5,428.5 835.5,411.5 835.5,394.5C 850.167,394.5 864.833,394.5 879.5,394.5 Z"/></g>
<g><path style="opacity:1" fill="#2d88c6" d="M 1631.5,399.5 C 1630.66,399.842 1630.33,400.508 1630.5,401.5C 1629.13,404.999 1627.46,408.333 1625.5,411.5C 1624.89,410.609 1624.56,409.609 1624.5,408.5C 1624.05,407.542 1623.38,406.708 1622.5,406C 1623.44,403.619 1623.77,401.119 1623.5,398.5C 1626.08,395.68 1627.91,392.346 1629,388.5C 1632.98,386.676 1636.15,384.009 1638.5,380.5C 1639.61,381.723 1639.78,383.056 1639,384.5C 1634.93,388.733 1632.43,393.733 1631.5,399.5 Z"/></g>
<g><path style="opacity:1" fill="#42638c" d="M 1679.5,358.5 C 1680.17,382.5 1680.83,406.5 1681.5,430.5C 1693.61,431.312 1705.28,429.646 1716.5,425.5C 1716.17,426.167 1715.83,426.833 1715.5,427.5C 1709.86,428.981 1704.19,430.481 1698.5,432C 1692.09,432.79 1685.75,432.624 1679.5,431.5C 1679.5,420.833 1679.5,410.167 1679.5,399.5C 1679.5,393.833 1679.5,388.167 1679.5,382.5C 1679.5,374.5 1679.5,366.5 1679.5,358.5 Z"/></g>
<g><path style="opacity:1" fill="#3d6890" d="M 1728.5,393.5 C 1725.07,400.593 1719.4,404.593 1711.5,405.5C 1717.66,402.25 1723.32,398.25 1728.5,393.5 Z"/></g>
<g><path style="opacity:1" fill="#202940" d="M 1675.5,345.5 C 1675.5,345.167 1675.5,344.833 1675.5,344.5C 1681.17,344.5 1686.83,344.5 1692.5,344.5C 1692.17,369.006 1692.5,393.339 1693.5,417.5C 1694.92,418.451 1696.59,418.784 1698.5,418.5C 1696.44,419.811 1694.27,419.811 1692,418.5C 1691.5,394.169 1691.33,369.836 1691.5,345.5C 1686.17,345.5 1680.83,345.5 1675.5,345.5 Z"/></g>
<g><path style="opacity:1" fill="#3f5c7f" d="M 1752.5,396.5 C 1751.37,400.101 1749.7,403.435 1747.5,406.5C 1744.1,408.388 1741.1,410.888 1738.5,414C 1737.55,414.483 1736.55,414.649 1735.5,414.5C 1741.87,409.131 1747.54,403.131 1752.5,396.5 Z"/></g>
<g><path style="opacity:1" fill="#3f668d" d="M 1728.5,404.5 C 1723.36,408.623 1717.69,411.956 1711.5,414.5C 1715.92,411.777 1720.25,408.777 1724.5,405.5C 1725.74,404.754 1727.07,404.421 1728.5,404.5 Z"/></g>
<g><path style="opacity:1" fill="#232e46" d="M 1675.5,357.5 C 1677.22,356.193 1679.06,356.193 1681,357.5C 1681.5,381.831 1681.67,406.164 1681.5,430.5C 1680.83,406.5 1680.17,382.5 1679.5,358.5C 1678.43,357.566 1677.1,357.232 1675.5,357.5 Z"/></g>
<g><path style="opacity:1" fill="#347fc5" d="M 1734.5,398.5 C 1732.83,400.833 1730.83,402.833 1728.5,404.5C 1727.07,404.421 1725.74,404.754 1724.5,405.5C 1720.25,408.777 1715.92,411.777 1711.5,414.5C 1709.1,414.259 1707.1,414.926 1705.5,416.5C 1701.45,416.395 1697.45,416.728 1693.5,417.5C 1693.5,412.5 1693.5,407.5 1693.5,402.5C 1695.07,400.214 1697.07,399.881 1699.5,401.5C 1699.19,404.385 1699.53,407.052 1700.5,409.5C 1701.49,409.672 1702.16,409.338 1702.5,408.5C 1705.29,407.079 1708.29,406.079 1711.5,405.5C 1719.4,404.593 1725.07,400.593 1728.5,393.5C 1728.83,393.5 1729.17,393.5 1729.5,393.5C 1732.07,392.604 1734.07,390.938 1735.5,388.5C 1735.83,389.5 1736.17,390.5 1736.5,391.5C 1735.52,393.777 1734.86,396.11 1734.5,398.5 Z"/></g>
<g><path style="opacity:1" fill="#3a7bbc" d="M 1752.5,396.5 C 1754.48,409.124 1755.15,422.124 1754.5,435.5C 1754.17,435.5 1753.83,435.5 1753.5,435.5C 1753.5,435.167 1753.5,434.833 1753.5,434.5C 1753.61,425.146 1753.28,415.812 1752.5,406.5C 1750.83,406.5 1749.17,406.5 1747.5,406.5C 1749.7,403.435 1751.37,400.101 1752.5,396.5 Z"/></g>
<g><path style="opacity:1" fill="#3b71b3" d="M 1747.5,406.5 C 1745.62,408.053 1744.62,410.053 1744.5,412.5C 1746.45,412.773 1747.95,412.107 1749,410.5C 1748.89,416.812 1748.73,423.145 1748.5,429.5C 1748.25,433.04 1747.58,436.373 1746.5,439.5C 1747.41,431.817 1747.41,424.15 1746.5,416.5C 1744.41,418.605 1742.08,420.272 1739.5,421.5C 1739.5,420.5 1739.5,419.5 1739.5,418.5C 1743.14,417.881 1744.14,415.881 1742.5,412.5C 1737.32,416.166 1731.99,419.666 1726.5,423C 1724.87,423.494 1723.2,423.66 1721.5,423.5C 1726.53,420.988 1731.2,417.988 1735.5,414.5C 1736.55,414.649 1737.55,414.483 1738.5,414C 1741.1,410.888 1744.1,408.388 1747.5,406.5 Z"/></g>
<g><path style="opacity:1" fill="#3b649b" d="M 1623.5,398.5 C 1623.77,401.119 1623.44,403.619 1622.5,406C 1623.38,406.708 1624.05,407.542 1624.5,408.5C 1622.83,409.343 1621.66,410.676 1621,412.5C 1619.77,421.792 1619.27,431.126 1619.5,440.5C 1616.58,426.143 1617.91,412.143 1623.5,398.5 Z"/></g>
<g><path style="opacity:1" fill="#3c5a88" d="M 1705.5,416.5 C 1703.29,417.268 1700.95,417.935 1698.5,418.5C 1696.59,418.784 1694.92,418.451 1693.5,417.5C 1697.45,416.728 1701.45,416.395 1705.5,416.5 Z"/></g>
<g><path style="opacity:1" fill="#1b233e" d="M 1628.5,411.5 C 1627.48,421.518 1627.48,431.518 1628.5,441.5C 1626.53,435.807 1625.53,429.807 1625.5,423.5C 1625.67,421.167 1625.83,418.833 1626,416.5C 1626.1,414.347 1626.93,412.681 1628.5,411.5 Z"/></g>
<g><path style="opacity:1" fill="#3d5174" d="M 1752.5,396.5 C 1753.21,395.596 1754.21,395.263 1755.5,395.5C 1755.83,409.01 1755.5,422.344 1754.5,435.5C 1755.15,422.124 1754.48,409.124 1752.5,396.5 Z"/></g>
<g><path style="opacity:1" fill="#357ac8" d="M 1679.5,399.5 C 1679.5,410.167 1679.5,420.833 1679.5,431.5C 1678.7,430.048 1678.2,428.382 1678,426.5C 1677.28,425.549 1676.45,425.383 1675.5,426C 1674.56,428.719 1674.22,431.552 1674.5,434.5C 1674.17,434.5 1673.83,434.5 1673.5,434.5C 1673.5,424.5 1673.5,414.5 1673.5,404.5C 1674.46,402.735 1674.79,400.735 1674.5,398.5C 1676.29,398.366 1677.96,398.699 1679.5,399.5 Z"/></g>
<g><path style="opacity:1" fill="#337ad2" d="M 1747.5,406.5 C 1749.17,406.5 1750.83,406.5 1752.5,406.5C 1753.28,415.812 1753.61,425.146 1753.5,434.5C 1752.51,431.943 1751.51,429.276 1750.5,426.5C 1749.82,427.602 1749.16,428.602 1748.5,429.5C 1748.73,423.145 1748.89,416.812 1749,410.5C 1747.95,412.107 1746.45,412.773 1744.5,412.5C 1744.62,410.053 1745.62,408.053 1747.5,406.5 Z"/></g>
<g><path style="opacity:1" fill="#3b71c2" d="M 1739.5,421.5 C 1736.68,423.419 1734.01,425.585 1731.5,428C 1729.98,429.009 1728.31,429.509 1726.5,429.5C 1723.74,431.086 1720.74,432.086 1717.5,432.5C 1717.92,431.778 1718.58,431.278 1719.5,431C 1719.17,430.667 1718.83,430.333 1718.5,430C 1722.1,429.551 1725.44,428.384 1728.5,426.5C 1724.06,425.263 1719.72,425.597 1715.5,427.5C 1715.83,426.833 1716.17,426.167 1716.5,425.5C 1718.4,425.204 1720.07,424.537 1721.5,423.5C 1723.2,423.66 1724.87,423.494 1726.5,423C 1731.99,419.666 1737.32,416.166 1742.5,412.5C 1744.14,415.881 1743.14,417.881 1739.5,418.5C 1739.5,419.5 1739.5,420.5 1739.5,421.5 Z"/></g>
<g><path style="opacity:1" fill="#3c64ce" d="M 1753.5,434.5 C 1753.5,434.833 1753.5,435.167 1753.5,435.5C 1752.58,439.79 1751.91,444.124 1751.5,448.5C 1749.75,452.327 1747.75,455.993 1745.5,459.5C 1743.83,461.5 1742.17,463.5 1740.5,465.5C 1739.17,464.17 1738.33,462.503 1738,460.5C 1737.29,461.381 1736.46,462.047 1735.5,462.5C 1735.56,461.391 1735.89,460.391 1736.5,459.5C 1737.34,457.147 1738.67,455.147 1740.5,453.5C 1742.87,451.066 1744.21,448.066 1744.5,444.5C 1745.17,442.833 1745.83,441.167 1746.5,439.5C 1747.58,436.373 1748.25,433.04 1748.5,429.5C 1749.16,428.602 1749.82,427.602 1750.5,426.5C 1751.51,429.276 1752.51,431.943 1753.5,434.5 Z"/></g>
<g><path style="opacity:1" fill="#3773cd" d="M 1624.5,408.5 C 1624.56,409.609 1624.89,410.609 1625.5,411.5C 1624.2,419.53 1624.2,427.53 1625.5,435.5C 1624.83,435.5 1624.17,435.5 1623.5,435.5C 1623.79,433.712 1623.45,432.045 1622.5,430.5C 1621.75,431.376 1621.25,432.376 1621,433.5C 1620.72,437.17 1620.89,440.837 1621.5,444.5C 1620.83,443.167 1620.17,441.833 1619.5,440.5C 1619.27,431.126 1619.77,421.792 1621,412.5C 1621.66,410.676 1622.83,409.343 1624.5,408.5 Z"/></g>
<g><path style="opacity:1" fill="#293455" d="M 1726.5,429.5 C 1724,432.643 1720.66,434.309 1716.5,434.5C 1716.5,433.833 1716.5,433.167 1716.5,432.5C 1716.83,432.5 1717.17,432.5 1717.5,432.5C 1720.74,432.086 1723.74,431.086 1726.5,429.5 Z"/></g>
<g><path style="opacity:1" fill="#376ed4" d="M 1679.5,431.5 C 1685.75,432.624 1692.09,432.79 1698.5,432C 1704.19,430.481 1709.86,428.981 1715.5,427.5C 1719.72,425.597 1724.06,425.263 1728.5,426.5C 1725.44,428.384 1722.1,429.551 1718.5,430C 1718.83,430.333 1719.17,430.667 1719.5,431C 1718.58,431.278 1717.92,431.778 1717.5,432.5C 1717.17,432.5 1716.83,432.5 1716.5,432.5C 1713.12,433.572 1709.78,434.738 1706.5,436C 1695.92,436.179 1685.42,436.679 1675,437.5C 1674.52,436.552 1674.35,435.552 1674.5,434.5C 1674.22,431.552 1674.56,428.719 1675.5,426C 1676.45,425.383 1677.28,425.549 1678,426.5C 1678.2,428.382 1678.7,430.048 1679.5,431.5 Z"/></g>
<g><path style="opacity:1" fill="#3f63b3" d="M 1716.5,432.5 C 1716.5,433.167 1716.5,433.833 1716.5,434.5C 1709.1,437.234 1701.43,438.567 1693.5,438.5C 1686.83,438.5 1680.17,438.5 1673.5,438.5C 1673.5,437.167 1673.5,435.833 1673.5,434.5C 1673.83,434.5 1674.17,434.5 1674.5,434.5C 1674.35,435.552 1674.52,436.552 1675,437.5C 1685.42,436.679 1695.92,436.179 1706.5,436C 1709.78,434.738 1713.12,433.572 1716.5,432.5 Z"/></g>
<g><path style="opacity:1" fill="#45628e" d="M 1672.5,367.5 C 1673.48,370.962 1673.81,374.629 1673.5,378.5C 1673.5,387.167 1673.5,395.833 1673.5,404.5C 1673.5,414.5 1673.5,424.5 1673.5,434.5C 1673.5,435.833 1673.5,437.167 1673.5,438.5C 1680.17,438.5 1686.83,438.5 1693.5,438.5C 1686.5,439.833 1679.5,439.833 1672.5,438.5C 1672.5,414.833 1672.5,391.167 1672.5,367.5 Z"/></g>
<g><path style="opacity:1" fill="#3a65cd" d="M 1623.5,435.5 C 1623.47,438.876 1624.14,442.042 1625.5,445C 1625.08,447.498 1624.75,449.998 1624.5,452.5C 1624.17,452.5 1623.83,452.5 1623.5,452.5C 1622.23,450.007 1621.56,447.341 1621.5,444.5C 1620.89,440.837 1620.72,437.17 1621,433.5C 1621.25,432.376 1621.75,431.376 1622.5,430.5C 1623.45,432.045 1623.79,433.712 1623.5,435.5 Z"/></g>
<g><path style="opacity:1" fill="#36406e" d="M 1744.5,444.5 C 1744.21,448.066 1742.87,451.066 1740.5,453.5C 1740.71,449.818 1742.04,446.818 1744.5,444.5 Z"/></g>
<g><path style="opacity:1" fill="#2b375c" d="M 1753.5,435.5 C 1753.83,435.5 1754.17,435.5 1754.5,435.5C 1754.45,440.187 1753.45,444.521 1751.5,448.5C 1751.91,444.124 1752.58,439.79 1753.5,435.5 Z"/></g>
<g><path style="opacity:1" fill="#405997" d="M 1630.5,401.5 C 1629.83,404.833 1629.17,408.167 1628.5,411.5C 1626.93,412.681 1626.1,414.347 1626,416.5C 1625.83,418.833 1625.67,421.167 1625.5,423.5C 1625.53,429.807 1626.53,435.807 1628.5,441.5C 1629.97,445.9 1631.63,450.233 1633.5,454.5C 1628.59,449.265 1625.92,442.932 1625.5,435.5C 1624.2,427.53 1624.2,419.53 1625.5,411.5C 1627.46,408.333 1629.13,404.999 1630.5,401.5 Z"/></g>
<g><path style="opacity:1" fill="#3e5ed8" d="M 1623.5,435.5 C 1624.17,435.5 1624.83,435.5 1625.5,435.5C 1625.92,442.932 1628.59,449.265 1633.5,454.5C 1633.5,455.167 1633.5,455.833 1633.5,456.5C 1635.08,459.762 1634.41,462.428 1631.5,464.5C 1630.73,463.306 1629.73,462.306 1628.5,461.5C 1627.93,458.127 1626.6,455.127 1624.5,452.5C 1624.75,449.998 1625.08,447.498 1625.5,445C 1624.14,442.042 1623.47,438.876 1623.5,435.5 Z"/></g>
<g><path style="opacity:1" fill="#37406c" d="M 1623.5,452.5 C 1623.83,452.5 1624.17,452.5 1624.5,452.5C 1626.6,455.127 1627.93,458.127 1628.5,461.5C 1625.91,459.112 1624.24,456.112 1623.5,452.5 Z"/></g>
<g><path style="opacity:1" fill="#3f487c" d="M 1616.5,466.5 C 1614.83,463.833 1613.17,461.167 1611.5,458.5C 1611.34,457.127 1611.51,455.793 1612,454.5C 1613.99,458.296 1615.49,462.296 1616.5,466.5 Z"/></g>
<g><path style="opacity:1" fill="#373c6f" d="M 1745.5,459.5 C 1744.85,462.803 1743.18,465.47 1740.5,467.5C 1740.5,466.833 1740.5,466.167 1740.5,465.5C 1742.17,463.5 1743.83,461.5 1745.5,459.5 Z"/></g>
<g><path style="opacity:1" fill="#4352b8" d="M 1633.5,456.5 C 1635.94,458.753 1637.94,461.42 1639.5,464.5C 1637.83,464.5 1636.17,464.5 1634.5,464.5C 1636.72,467.933 1638.72,471.6 1640.5,475.5C 1638.98,475.489 1637.82,474.823 1637,473.5C 1634.7,470.742 1632.87,467.742 1631.5,464.5C 1634.41,462.428 1635.08,459.762 1633.5,456.5 Z"/></g>
<g><path style="opacity:1" fill="#3d447e" d="M 1736.5,459.5 C 1735.89,460.391 1735.56,461.391 1735.5,462.5C 1733.83,464.833 1731.83,466.833 1729.5,468.5C 1731.52,465.159 1733.85,462.159 1736.5,459.5 Z"/></g>
<g><path style="opacity:1" fill="#424883" d="M 1641.5,465.5 C 1644.17,467.5 1646.5,469.833 1648.5,472.5C 1645.17,471.167 1642.83,468.833 1641.5,465.5 Z"/></g>
<g><path style="opacity:1" fill="#6c6c78" d="M 886.5,445.5 C 887.492,453.316 887.826,461.316 887.5,469.5C 860.328,469.831 833.328,469.498 806.5,468.5C 806.833,468.5 807.167,468.5 807.5,468.5C 833.833,468.5 860.167,468.5 886.5,468.5C 886.5,460.833 886.5,453.167 886.5,445.5 Z"/></g>
<g><path style="opacity:1" fill="#a0a1a6" d="M 1160.5,467.5 C 1161.04,467.56 1161.38,467.893 1161.5,468.5C 1151.01,469.823 1140.67,469.823 1130.5,468.5C 1140.68,468.827 1150.68,468.494 1160.5,467.5 Z"/></g>
<g><path style="opacity:1" fill="#434787" d="M 1758.5,462.5 C 1756.42,468.323 1753.09,473.323 1748.5,477.5C 1751.59,472.32 1754.92,467.32 1758.5,462.5 Z"/></g>
<g><path style="opacity:1" fill="#434687" d="M 1729.5,468.5 C 1727.33,472.012 1724.33,474.345 1720.5,475.5C 1723.21,472.791 1726.21,470.458 1729.5,468.5 Z"/></g>
<g><path style="opacity:1" fill="#4350dd" d="M 1639.5,464.5 C 1640.17,464.833 1640.83,465.167 1641.5,465.5C 1642.83,468.833 1645.17,471.167 1648.5,472.5C 1648.5,472.833 1648.5,473.167 1648.5,473.5C 1646.68,477.749 1644.01,478.416 1640.5,475.5C 1638.72,471.6 1636.72,467.933 1634.5,464.5C 1636.17,464.5 1637.83,464.5 1639.5,464.5 Z"/></g>
<g><path style="opacity:1" fill="#444dd9" d="M 1744.5,491.5 C 1745.41,489.914 1745.41,488.414 1744.5,487C 1745.79,486.51 1747.13,486.343 1748.5,486.5C 1748.76,484.541 1749.26,483.207 1750,482.5C 1748.59,481.587 1747.09,481.587 1745.5,482.5C 1746.75,480.999 1747.75,479.332 1748.5,477.5C 1753.09,473.323 1756.42,468.323 1758.5,462.5C 1759.31,461.571 1760.15,460.571 1761,459.5C 1761.83,464.202 1761.66,468.869 1760.5,473.5C 1755.63,479.93 1750.3,485.93 1744.5,491.5 Z"/></g>
<g><path style="opacity:1" fill="#373b70" d="M 1611.5,471.5 C 1612.89,472.899 1613.89,474.566 1614.5,476.5C 1612.24,475.656 1611.24,473.989 1611.5,471.5 Z"/></g>
<g><path style="opacity:1" fill="#43469e" d="M 1616.5,466.5 C 1620.3,472.657 1624.97,478.324 1630.5,483.5C 1623.66,479.655 1618.99,473.988 1616.5,466.5 Z"/></g>
<g><path style="opacity:1" fill="#35396b" d="M 1740.5,467.5 C 1735.72,475.269 1729.06,480.936 1720.5,484.5C 1727.78,479.554 1734.45,473.887 1740.5,467.5 Z"/></g>
<g><path style="opacity:1" fill="#4248b3" d="M 1648.5,473.5 C 1651.39,474.458 1653.72,476.124 1655.5,478.5C 1652.67,475.706 1650,475.873 1647.5,479C 1649.04,480.371 1650.37,481.871 1651.5,483.5C 1648.81,481.538 1645.81,480.038 1642.5,479C 1641.18,478.184 1640.51,477.017 1640.5,475.5C 1644.01,478.416 1646.68,477.749 1648.5,473.5 Z"/></g>
<g><path style="opacity:1" fill="#444dd8" d="M 1740.5,465.5 C 1740.5,466.167 1740.5,466.833 1740.5,467.5C 1734.45,473.887 1727.78,479.554 1720.5,484.5C 1717.89,484.4 1715.56,485.067 1713.5,486.5C 1712.99,484.561 1711.65,483.561 1709.5,483.5C 1708.15,483.846 1706.82,484.179 1705.5,484.5C 1705.83,483.833 1706.17,483.167 1706.5,482.5C 1711.84,481.29 1716.51,478.956 1720.5,475.5C 1724.33,474.345 1727.33,472.012 1729.5,468.5C 1731.83,466.833 1733.83,464.833 1735.5,462.5C 1736.46,462.047 1737.29,461.381 1738,460.5C 1738.33,462.503 1739.17,464.17 1740.5,465.5 Z"/></g>
<g><path style="opacity:1" fill="#3b3c75" d="M 1617.5,480.5 C 1619.59,481.585 1620.92,483.251 1621.5,485.5C 1619.41,484.415 1618.08,482.749 1617.5,480.5 Z"/></g>
<g><path style="opacity:1" fill="#444487" d="M 1748.5,477.5 C 1747.75,479.332 1746.75,480.999 1745.5,482.5C 1743.43,484.58 1741.09,486.246 1738.5,487.5C 1741.5,483.833 1744.83,480.5 1748.5,477.5 Z"/></g>
<g><path style="opacity:1" fill="#454bd5" d="M 1611.5,458.5 C 1613.17,461.167 1614.83,463.833 1616.5,466.5C 1618.99,473.988 1623.66,479.655 1630.5,483.5C 1630.5,484.833 1631.17,485.5 1632.5,485.5C 1632.83,486.167 1633.17,486.833 1633.5,487.5C 1631.74,487.643 1630.07,487.309 1628.5,486.5C 1628.17,487 1627.83,487.5 1627.5,488C 1628.99,490.317 1630.65,492.484 1632.5,494.5C 1628.56,491.902 1624.9,488.902 1621.5,485.5C 1620.92,483.251 1619.59,481.585 1617.5,480.5C 1616.86,478.924 1615.86,477.59 1614.5,476.5C 1613.89,474.566 1612.89,472.899 1611.5,471.5C 1611.5,467.167 1611.5,462.833 1611.5,458.5 Z"/></g>
<g><path style="opacity:1" fill="#3b386f" d="M 1632.5,485.5 C 1634.75,486.08 1636.42,487.413 1637.5,489.5C 1635.94,489.267 1634.6,488.6 1633.5,487.5C 1633.17,486.833 1632.83,486.167 1632.5,485.5 Z"/></g>
<g><path style="opacity:1" fill="#3d3c86" d="M 1666.5,482.5 C 1679.82,486.403 1693.15,486.403 1706.5,482.5C 1706.17,483.167 1705.83,483.833 1705.5,484.5C 1695.59,486.377 1685.59,486.877 1675.5,486C 1672,485.881 1669,484.714 1666.5,482.5 Z"/></g>
<g><path style="opacity:1" fill="#39387d" d="M 1655.5,486.5 C 1659.53,487.025 1663.2,488.358 1666.5,490.5C 1662.33,490.333 1658.66,489 1655.5,486.5 Z"/></g>
<g><path style="opacity:1" fill="#3b3a83" d="M 1720.5,484.5 C 1718.57,486.474 1716.24,487.974 1713.5,489C 1709.65,489.414 1705.98,490.248 1702.5,491.5C 1705.9,489.242 1709.57,487.576 1713.5,486.5C 1715.56,485.067 1717.89,484.4 1720.5,484.5 Z"/></g>
<g><path style="opacity:1" fill="#4940da" d="M 1744.5,491.5 C 1742.66,492.402 1741.33,493.736 1740.5,495.5C 1734.64,499.567 1728.31,502.9 1721.5,505.5C 1720.7,505.957 1720.37,506.624 1720.5,507.5C 1718.08,507.878 1715.75,508.545 1713.5,509.5C 1714.82,507.35 1716.82,506.016 1719.5,505.5C 1719.02,504.522 1718.36,503.689 1717.5,503C 1713.83,503.159 1710.16,503.659 1706.5,504.5C 1706.5,504.167 1706.5,503.833 1706.5,503.5C 1712.89,501.487 1719.22,499.32 1725.5,497C 1727.09,496.051 1728.43,494.885 1729.5,493.5C 1733.32,492.754 1736.32,490.754 1738.5,487.5C 1741.09,486.246 1743.43,484.58 1745.5,482.5C 1747.09,481.587 1748.59,481.587 1750,482.5C 1749.26,483.207 1748.76,484.541 1748.5,486.5C 1747.13,486.343 1745.79,486.51 1744.5,487C 1745.41,488.414 1745.41,489.914 1744.5,491.5 Z"/></g>
<g><path style="opacity:1" fill="#413e85" d="M 1738.5,487.5 C 1736.32,490.754 1733.32,492.754 1729.5,493.5C 1732.32,491.255 1735.32,489.255 1738.5,487.5 Z"/></g>
<g><path style="opacity:1" fill="#4b4a96" d="M 1666.5,490.5 C 1669.15,490.41 1671.49,491.076 1673.5,492.5C 1670.85,492.59 1668.51,491.924 1666.5,490.5 Z"/></g>
<g><path style="opacity:1" fill="#4845df" d="M 1655.5,478.5 C 1658.95,480.285 1662.62,481.618 1666.5,482.5C 1669,484.714 1672,485.881 1675.5,486C 1685.59,486.877 1695.59,486.377 1705.5,484.5C 1706.82,484.179 1708.15,483.846 1709.5,483.5C 1711.65,483.561 1712.99,484.561 1713.5,486.5C 1709.57,487.576 1705.9,489.242 1702.5,491.5C 1693.52,492.266 1684.52,492.599 1675.5,492.5C 1674.83,492.5 1674.17,492.5 1673.5,492.5C 1671.49,491.076 1669.15,490.41 1666.5,490.5C 1663.2,488.358 1659.53,487.025 1655.5,486.5C 1654.41,485.143 1653.08,484.143 1651.5,483.5C 1650.37,481.871 1649.04,480.371 1647.5,479C 1650,475.873 1652.67,475.706 1655.5,478.5 Z"/></g>
<g><path style="opacity:1" fill="#4b45b0" d="M 1702.5,491.5 C 1697.42,493.015 1692.09,493.682 1686.5,493.5C 1682.65,493.499 1678.98,493.165 1675.5,492.5C 1684.52,492.599 1693.52,492.266 1702.5,491.5 Z"/></g>
<g><path style="opacity:1" fill="#25234e" d="M 1643.5,493.5 C 1645.92,494.891 1648.59,495.725 1651.5,496C 1654.18,498.11 1656.85,499.943 1659.5,501.5C 1653.27,500.384 1647.94,497.718 1643.5,493.5 Z"/></g>
<g><path style="opacity:1" fill="#3a3374" d="M 1659.5,501.5 C 1662.92,501.528 1665.92,502.528 1668.5,504.5C 1665.08,504.472 1662.08,503.472 1659.5,501.5 Z"/></g>
<g><path style="opacity:1" fill="#4b3ade" d="M 1633.5,487.5 C 1634.6,488.6 1635.94,489.267 1637.5,489.5C 1639.15,491.326 1641.15,492.66 1643.5,493.5C 1647.94,497.718 1653.27,500.384 1659.5,501.5C 1662.08,503.472 1665.08,504.472 1668.5,504.5C 1670.83,505.167 1673.17,505.833 1675.5,506.5C 1684.55,507.884 1693.55,507.55 1702.5,505.5C 1704.1,505.768 1705.43,505.434 1706.5,504.5C 1710.16,503.659 1713.83,503.159 1717.5,503C 1718.36,503.689 1719.02,504.522 1719.5,505.5C 1716.82,506.016 1714.82,507.35 1713.5,509.5C 1712.17,509.833 1710.83,510.167 1709.5,510.5C 1705.3,511.132 1701.3,512.132 1697.5,513.5C 1690.17,513.5 1682.83,513.5 1675.5,513.5C 1675.5,513.167 1675.5,512.833 1675.5,512.5C 1671.61,512.354 1667.95,511.687 1664.5,510.5C 1660.7,508.731 1656.7,507.231 1652.5,506C 1650.16,505.163 1648.16,503.829 1646.5,502C 1645.21,501.51 1643.87,501.343 1642.5,501.5C 1638.46,500.149 1635.13,497.815 1632.5,494.5C 1630.65,492.484 1628.99,490.317 1627.5,488C 1627.83,487.5 1628.17,487 1628.5,486.5C 1630.07,487.309 1631.74,487.643 1633.5,487.5 Z"/></g>
<g><path style="opacity:1" fill="#393282" d="M 1706.5,503.5 C 1706.5,503.833 1706.5,504.167 1706.5,504.5C 1705.43,505.434 1704.1,505.768 1702.5,505.5C 1699.5,505.5 1696.5,505.5 1693.5,505.5C 1697.66,504.551 1701.99,503.884 1706.5,503.5 Z"/></g>
<g><path style="opacity:1" fill="#393277" d="M 1740.5,495.5 C 1739.37,497.129 1738.04,498.629 1736.5,500C 1731.06,502.281 1725.72,504.781 1720.5,507.5C 1720.37,506.624 1720.7,505.957 1721.5,505.5C 1728.31,502.9 1734.64,499.567 1740.5,495.5 Z"/></g>
<g><path style="opacity:1" fill="#28235d" d="M 1668.5,504.5 C 1676.83,504.884 1685.16,505.218 1693.5,505.5C 1687.69,506.49 1681.69,506.823 1675.5,506.5C 1673.17,505.833 1670.83,505.167 1668.5,504.5 Z"/></g>
<g><path style="opacity:1" fill="#4338a8" d="M 1642.5,501.5 C 1643.87,501.343 1645.21,501.51 1646.5,502C 1648.16,503.829 1650.16,505.163 1652.5,506C 1656.7,507.231 1660.7,508.731 1664.5,510.5C 1662.44,510.483 1660.44,510.15 1658.5,509.5C 1652.3,508.403 1646.97,505.736 1642.5,501.5 Z"/></g>
<g><path style="opacity:1" fill="#4a3cb8" d="M 1693.5,505.5 C 1696.5,505.5 1699.5,505.5 1702.5,505.5C 1693.55,507.55 1684.55,507.884 1675.5,506.5C 1681.69,506.823 1687.69,506.49 1693.5,505.5 Z"/></g>
<g><path style="opacity:1" fill="#4b35ec" d="M 1675.5,512.5 C 1670.36,510.446 1665.03,508.613 1659.5,507C 1660.17,506.667 1660.83,506.333 1661.5,506C 1672.07,507.41 1682.74,508.41 1693.5,509C 1691.88,509.853 1691.54,510.853 1692.5,512C 1686.84,512.499 1681.18,512.666 1675.5,512.5 Z"/></g>
<g><path style="opacity:1" fill="#24224c" d="M 1658.5,509.5 C 1660.44,510.15 1662.44,510.483 1664.5,510.5C 1667.95,511.687 1671.61,512.354 1675.5,512.5C 1675.5,512.833 1675.5,513.167 1675.5,513.5C 1672.48,513.665 1669.48,513.498 1666.5,513C 1663.33,512.678 1660.67,511.511 1658.5,509.5 Z"/></g>
<g><path style="opacity:1" fill="#2d2760" d="M 1709.5,510.5 C 1706.07,513.114 1702.07,514.114 1697.5,513.5C 1701.3,512.132 1705.3,511.132 1709.5,510.5 Z"/></g>
<g><path style="opacity:1" fill="#0695af" d="M 206.5,607.5 C 216.468,619.146 227.468,630.479 239.5,641.5C 239.833,641.333 240.167,641.167 240.5,641C 229.298,629.965 218.298,618.798 207.5,607.5C 285.982,639.051 361.649,633.551 434.5,591C 517.664,534.834 556.164,456.334 550,355.5C 544.34,309.293 527.507,267.96 499.5,231.5C 495.398,231.468 491.398,232.635 487.5,235C 470.686,240.06 455.019,237.727 440.5,228C 430.696,219.197 421.196,210.03 412,200.5C 405.834,208.429 398.834,209.429 391,203.5C 387.667,198.5 387.667,193.5 391,188.5C 404.368,174.965 417.868,161.631 431.5,148.5C 468.082,186.583 505.249,224.25 543,261.5C 543.464,260.906 543.631,260.239 543.5,259.5C 565.836,302.247 575.67,347.914 573,396.5C 565.411,491.55 521.244,564.05 440.5,614C 360.713,657.813 278.713,662.146 194.5,627C 125.248,593.982 77.4145,541.482 51,469.5C 24.4167,384.772 35.0833,305.105 83,230.5C 145.654,144.912 230.154,106.746 336.5,116C 343.414,119.77 345.247,125.27 342,132.5C 340.062,135.106 337.562,136.939 334.5,138C 240.742,130.187 164.908,163.021 107,236.5C 54.8037,311.941 45.4703,392.608 79,478.5C 105.99,536.989 148.49,579.989 206.5,607.5 Z"/></g>
<g><path style="opacity:1" fill="#94949b" d="M 105.5,370.5 C 105.333,383.171 105.5,395.838 106,408.5C 107.667,406.833 109.333,405.167 111,403.5C 111.17,392.326 111.67,381.326 112.5,370.5C 112.5,404.5 112.5,438.5 112.5,472.5C 111.669,458.339 111.169,444.006 111,429.5C 109.333,427.833 107.667,426.167 106,424.5C 105.5,440.83 105.333,457.163 105.5,473.5C 104.167,439.167 104.167,404.833 105.5,370.5 Z"/></g>
<g><path style="opacity:1" fill="#d1d1d2" d="M 402.5,297.5 C 455.205,295.086 492.371,317.753 514,365.5C 528.101,409.929 518.601,448.429 485.5,481C 449.83,509.835 410.83,515.168 368.5,497C 330.808,476.318 311.142,444.318 309.5,401C 314.887,343.344 345.887,308.844 402.5,297.5 Z"/></g>
<g><path style="opacity:1" fill="#d9d9d9" d="M 110.5,405.5 C 111.655,412.655 111.822,419.988 111,427.5C 105.687,423.072 104.021,417.405 106,410.5C 107.707,408.963 109.207,407.296 110.5,405.5 Z"/></g>
<g><path style="opacity:1" fill="#030419" d="M 404.5,304.5 C 453.488,303.05 487.822,324.55 507.5,369C 520.014,409.611 511.347,444.945 481.5,475C 451.136,500.205 417.136,506.538 379.5,494C 329.134,469.433 309.634,429.599 321,374.5C 335.094,334.558 362.927,311.224 404.5,304.5 Z"/></g>
<g><path style="opacity:1" fill="#d1d1d2" d="M 445.5,321.5 C 450.213,321.468 451.713,323.801 450,328.5C 440.516,348.136 431.016,367.802 421.5,387.5C 432.156,393.495 443.156,398.995 454.5,404C 456.211,405.133 456.711,406.633 456,408.5C 439.366,426.802 422.366,444.802 405,462.5C 397.924,470.08 390.424,477.08 382.5,483.5C 379.862,482.304 379.029,480.304 380,477.5C 389.773,457.621 399.273,437.621 408.5,417.5C 397.722,411.61 386.722,405.943 375.5,400.5C 374.369,398.926 374.202,397.259 375,395.5C 398.339,370.661 421.839,345.995 445.5,321.5 Z"/></g>
<g><path style="opacity:1" fill="#07081b" d="M 432.5,345.5 C 433.043,345.56 433.376,345.893 433.5,346.5C 426.123,360.755 419.123,375.255 412.5,390C 412.759,391.261 413.426,392.261 414.5,393C 425.049,398.107 435.383,403.44 445.5,409C 429.679,425.488 413.846,441.988 398,458.5C 397.878,456.831 398.212,455.165 399,453.5C 405.559,440.88 411.726,428.047 417.5,415C 417.22,413.605 416.553,412.438 415.5,411.5C 405.014,406.756 394.68,401.756 384.5,396.5C 400.494,379.506 416.494,362.506 432.5,345.5 Z"/></g>
<g><path style="opacity:1" fill="#d3d3d4" d="M 105.5,473.5 C 105.333,457.163 105.5,440.83 106,424.5C 107.667,426.167 109.333,427.833 111,429.5C 111.169,444.006 111.669,458.339 112.5,472.5C 113.477,475.989 115.477,478.823 118.5,481C 131.833,481.667 145.167,481.667 158.5,481C 162.77,479.73 165.27,476.896 166,472.5C 165.868,461.748 166.702,451.248 168.5,441C 209.832,440.5 251.165,440.333 292.5,440.5C 282.902,405.748 286.402,372.415 303,340.5C 304.796,337.073 306.963,333.906 309.5,331C 261.5,330.667 213.5,330.333 165.5,330C 164.325,327.162 164.491,324.329 166,321.5C 173.113,301.942 180.779,282.609 189,263.5C 192.453,259.855 196.62,257.355 201.5,256C 259.167,255.333 316.833,255.333 374.5,256C 385.46,258.463 391.794,265.296 393.5,276.5C 397.135,275.886 400.802,275.552 404.5,275.5C 401.442,258.442 391.442,248.442 374.5,245.5C 365.765,244.821 356.932,244.154 348,243.5C 299.736,244.164 251.569,244.831 203.5,245.5C 193.011,246.16 184.844,250.826 179,259.5C 172.154,276.051 165.32,292.551 158.5,309C 157.5,309.667 156.5,309.667 155.5,309C 153.946,306.314 152.612,303.481 151.5,300.5C 150.3,299.469 148.966,298.635 147.5,298C 135.5,297.333 123.5,297.333 111.5,298C 110.069,298.465 108.903,299.299 108,300.5C 104.797,311.595 108.631,319.095 119.5,323C 129.167,323.333 138.833,323.667 148.5,324C 149.574,324.739 150.241,325.739 150.5,327C 148.553,329.951 146.219,332.618 143.5,335C 134.722,341.81 126.222,348.977 118,356.5C 115.083,360.751 113.25,365.418 112.5,370.5C 111.67,381.326 111.17,392.326 111,403.5C 109.333,405.167 107.667,406.833 106,408.5C 105.5,395.838 105.333,383.171 105.5,370.5C 105.981,363.891 108.148,357.891 112,352.5C 119.87,344.961 128.037,337.794 136.5,331C 130.167,330.667 123.833,330.333 117.5,330C 101.786,324.406 96.286,313.573 101,297.5C 103.264,294.567 106.098,292.4 109.5,291C 123.167,290.333 136.833,290.333 150.5,291C 152.754,292.377 154.92,293.877 157,295.5C 161.863,283.244 166.53,270.911 171,258.5C 177.823,247.338 187.656,240.505 200.5,238C 258.833,237.333 317.167,237.333 375.5,238C 386.618,239.644 395.784,244.81 403,253.5C 408.347,261.841 411.68,270.841 413,280.5C 412.5,281 412,281.5 411.5,282C 404.93,282.355 398.43,283.188 392,284.5C 390.395,283.899 389.062,282.899 388,281.5C 386.726,277.01 385.059,272.677 383,268.5C 380.374,265.769 377.207,263.936 373.5,263C 316.5,262.333 259.5,262.333 202.5,263C 198.173,264.573 195.007,267.407 193,271.5C 186.5,288.5 180,305.5 173.5,322.5C 221.83,323.333 270.163,323.833 318.5,324C 319.081,324.893 319.415,325.893 319.5,327C 312.439,338.285 306.273,350.119 301,362.5C 292.374,389.705 292.541,416.872 301.5,444C 301.415,445.107 301.081,446.107 300.5,447C 258.168,447.5 215.835,447.667 173.5,447.5C 173.666,456.839 173.5,466.173 173,475.5C 171.283,480.549 168.116,484.382 163.5,487C 148.235,488.619 132.901,488.952 117.5,488C 110.359,485.698 106.359,480.865 105.5,473.5 Z"/></g>
<g><path style="opacity:1" fill="#030419" d="M 203.5,245.5 C 260.5,245.5 317.5,245.5 374.5,245.5C 391.442,248.442 401.442,258.442 404.5,275.5C 400.802,275.552 397.135,275.886 393.5,276.5C 391.794,265.296 385.46,258.463 374.5,256C 316.833,255.333 259.167,255.333 201.5,256C 196.62,257.355 192.453,259.855 189,263.5C 180.779,282.609 173.113,301.942 166,321.5C 164.491,324.329 164.325,327.162 165.5,330C 213.5,330.333 261.5,330.667 309.5,331C 306.963,333.906 304.796,337.073 303,340.5C 286.402,372.415 282.902,405.748 292.5,440.5C 251.165,440.333 209.832,440.5 168.5,441C 166.702,451.248 165.868,461.748 166,472.5C 165.27,476.896 162.77,479.73 158.5,481C 145.167,481.667 131.833,481.667 118.5,481C 115.477,478.823 113.477,475.989 112.5,472.5C 112.5,438.5 112.5,404.5 112.5,370.5C 113.25,365.418 115.083,360.751 118,356.5C 126.222,348.977 134.722,341.81 143.5,335C 146.219,332.618 148.553,329.951 150.5,327C 150.241,325.739 149.574,324.739 148.5,324C 138.833,323.667 129.167,323.333 119.5,323C 108.631,319.095 104.797,311.595 108,300.5C 108.903,299.299 110.069,298.465 111.5,298C 123.5,297.333 135.5,297.333 147.5,298C 148.966,298.635 150.3,299.469 151.5,300.5C 152.612,303.481 153.946,306.314 155.5,309C 156.5,309.667 157.5,309.667 158.5,309C 165.32,292.551 172.154,276.051 179,259.5C 184.844,250.826 193.011,246.16 203.5,245.5 Z"/></g>
<g><path style="opacity:1" fill="#d0d0d1" d="M 156.5,358.5 C 172.159,356.669 181.992,363.336 186,378.5C 186.056,397.442 176.556,406.609 157.5,406C 138.655,398.468 133.822,385.635 143,367.5C 146.826,363.348 151.326,360.348 156.5,358.5 Z"/></g>
<g><path style="opacity:1" fill="#05061a" d="M 157.5,365.5 C 175.602,365.76 181.769,374.427 176,391.5C 167.291,400.414 158.291,400.747 149,392.5C 142.911,380.604 145.744,371.604 157.5,365.5 Z"/></g>
<g><path style="opacity:1" fill="#74757f" d="M 374.5,245.5 C 317.5,245.5 260.5,245.5 203.5,245.5C 251.569,244.831 299.736,244.164 348,243.5C 356.932,244.154 365.765,244.821 374.5,245.5 Z"/></g>
<g><path style="opacity:1" fill="#0b7a8e" d="M 133.5,194.5 C 134.525,194.897 134.692,195.563 134,196.5C 115.667,214.833 97.3333,233.167 79,251.5C 78.3333,250.833 78.3333,250.167 79,249.5C 97.3684,231.299 115.535,212.965 133.5,194.5 Z"/></g>
<g><path style="opacity:1" fill="#4cb0c2" d="M 206.5,607.5 C 206.833,607.5 207.167,607.5 207.5,607.5C 218.298,618.798 229.298,629.965 240.5,641C 240.167,641.167 239.833,641.333 239.5,641.5C 227.468,630.479 216.468,619.146 206.5,607.5 Z"/></g>
</svg>
